# File created by Blade
# Date/Time:  Thu Sep 25 19:43:58 2014
# Frame Rate: 120.000 fps
#------------------------------------------------------
:FULLY-SPECIFIED
:DEGREES
219
root 4.354295 31.624442 -4.335364 15.577657 20.332276 -8.570477
Spine -7.199922 1.434056 -1.714750
Head -19.678554 -8.975387 15.826275
LeftShoulder -11.674619 19.610281 19.329292
LeftArm 21.546642 -5.869462 -50.211523
LeftForeArm 9.322980 -0.000000 18.633597
LeftHand -22.714259 -0.000000 -9.494043
LeftHandThumb1 -26.253704 0.000000 33.147579
RightShoulder -19.884161 11.771553 -28.798168
RightArm -18.032442 9.670675 55.375552
RightForeArm -25.234730 -0.000000 14.274788
RightHand -10.223333 -0.000000 11.444768
RightHandThumb1 -24.326973 -0.000000 -32.862282
LeftUpLeg -34.753807 18.550251 17.031725
LeftLeg 28.652316 -0.000000 -0.000000
LeftFoot -14.302885 1.827314 -26.151963
LeftToeBase 9.234822 -0.000000 -0.000000
RightUpLeg -11.099332 -15.488619 -2.916586
RightLeg 1.357829 -0.000000 -0.000000
RightFoot -6.387154 -7.421974 18.305193
RightToeBase 2.487654 -0.000000 -0.000000
220
root 4.427295 31.583531 -4.418170 15.730031 20.395534 -9.032939
Spine -7.063954 1.669584 -1.831435
Head -20.022062 -9.069275 16.301971
LeftShoulder -11.437009 19.453233 19.633675
LeftArm 21.577396 -6.300836 -49.957295
LeftForeArm 9.462880 -0.000000 18.902772
LeftHand -22.738715 -0.000000 -9.180681
LeftHandThumb1 -26.253704 0.000000 33.147579
RightShoulder -19.931909 11.765032 -28.622331
RightArm -18.044452 9.620568 55.641955
RightForeArm -25.293809 -0.000000 14.444044
RightHand -10.174920 -0.000000 11.222521
RightHandThumb1 -24.326973 -0.000000 -32.862282
LeftUpLeg -35.737279 18.956529 17.101037
LeftLeg 29.751117 -0.000000 -0.000000
LeftFoot -14.713400 1.239661 -26.117083
LeftToeBase 9.531944 -0.000000 -0.000000
RightUpLeg -11.413240 -15.233378 -2.764411
RightLeg 1.329572 -0.000000 -0.000000
RightFoot -6.165148 -7.020295 18.942633
RightToeBase 2.362747 -0.000000 -0.000000
221
root 4.498716 31.543097 -4.498604 15.861857 20.453027 -9.492322
Spine -6.901306 1.813437 -1.951891
Head -20.342008 -9.030699 16.820074
LeftShoulder -11.299671 19.371604 19.897413
LeftArm 21.634200 -6.745185 -49.688425
LeftForeArm 9.521137 -0.000000 19.209101
LeftHand -23.014455 -0.000000 -8.918840
LeftHandThumb1 -26.253704 0.000000 33.147579
RightShoulder -19.911720 11.800224 -28.422813
RightArm -18.050454 9.642543 55.874485
RightForeArm -25.549564 -0.000000 14.654969
RightHand -10.296790 -0.000000 11.010285
RightHandThumb1 -24.326973 -0.000000 -32.862282
LeftUpLeg -36.673834 19.275307 17.221424
LeftLeg 30.830855 -0.000000 -0.000000
LeftFoot -15.064904 0.736623 -25.970038
LeftToeBase 9.543365 -0.000000 -0.000000
RightUpLeg -11.705509 -15.123682 -2.596402
RightLeg 1.280876 -0.000000 -0.000000
RightFoot -5.839984 -6.407092 19.533947
RightToeBase 2.124646 -0.000000 -0.000000
222
root 4.572445 31.502201 -4.578717 16.018177 20.492308 -9.937776
Spine -6.783440 1.934108 -2.084597
Head -20.624865 -9.019910 17.339256
LeftShoulder -11.180234 19.224993 20.154385
LeftArm 21.614565 -7.098972 -49.371594
LeftForeArm 9.539978 -0.000000 19.466448
LeftHand -23.069715 -0.000000 -8.520431
LeftHandThumb1 -26.253704 0.000000 33.147579
RightShoulder -19.842694 11.904642 -28.235974
RightArm -18.113396 9.615857 56.061961
RightForeArm -25.633899 -0.000000 14.892614
RightHand -10.358604 -0.000000 10.819316
RightHandThumb1 -24.326973 -0.000000 -32.862282
LeftUpLeg -37.608860 19.561912 17.318008
LeftLeg 31.901576 -0.000000 -0.000000
LeftFoot -15.472088 0.333533 -25.892566
LeftToeBase 9.568484 -0.000000 -0.000000
RightUpLeg -12.008386 -14.960958 -2.477427
RightLeg 1.243928 -0.000000 -0.000000
RightFoot -5.489770 -5.716707 20.199048
RightToeBase 1.914958 -0.000000 -0.000000
223
root 4.645610 31.462348 -4.658051 16.188877 20.473389 -10.374678
Spine -6.687027 2.061776 -2.255007
Head -20.882728 -8.921951 17.885760
LeftShoulder -11.128676 19.117874 20.378918
LeftArm 21.645055 -7.439677 -49.028627
LeftForeArm 9.636513 -0.000000 19.674522
LeftHand -23.118755 -0.000000 -8.174112
LeftHandThumb1 -26.253704 0.000000 33.147579
RightShoulder -19.785308 11.949343 -28.014675
RightArm -18.049625 9.600140 56.255811
RightForeArm -25.795473 -0.000000 15.090574
RightHand -10.425500 -0.000000 10.631063
RightHandThumb1 -24.326973 -0.000000 -32.862282
LeftUpLeg -38.515285 19.872005 17.410450
LeftLeg 32.937612 -0.000000 -0.000000
LeftFoot -15.840098 -0.037128 -25.816484
LeftToeBase 9.488807 -0.000000 -0.000000
RightUpLeg -12.359217 -14.804620 -2.376801
RightLeg 1.280921 -0.000000 -0.000000
RightFoot -5.111256 -4.888355 20.847551
RightToeBase 1.638926 -0.000000 -0.000000
224
root 4.722421 31.421754 -4.731884 16.358622 20.473587 -10.814516
Spine -6.640180 2.169256 -2.390049
Head -21.062406 -8.940167 18.356241
LeftShoulder -11.063196 19.084355 20.537516
LeftArm 21.682247 -7.819830 -48.653394
LeftForeArm 9.865997 -0.000000 19.886770
LeftHand -23.088716 0.000000 -7.904030
LeftHandThumb1 -26.253704 0.000000 33.147579
RightShoulder -19.746307 11.985525 -27.825638
RightArm -17.931717 9.419480 56.452296
RightForeArm -25.771372 -0.000000 15.232379
RightHand -10.479122 -0.000000 10.370894
RightHandThumb1 -24.326973 -0.000000 -32.862282
LeftUpLeg -39.414492 20.115248 17.526465
LeftLeg 33.973815 -0.000000 -0.000000
LeftFoot -16.205134 -0.365516 -25.781895
LeftToeBase 9.402089 -0.000000 -0.000000
RightUpLeg -12.666684 -14.783181 -2.281573
RightLeg 1.257628 -0.000000 -0.000000
RightFoot -4.597358 -3.763029 21.585705
RightToeBase 1.382480 -0.000000 -0.000000
225
root 4.801476 31.379328 -4.804579 16.507505 20.446763 -11.246638
Spine -6.566733 2.313822 -2.521832
Head -21.241793 -8.942075 18.813980
LeftShoulder -10.954066 19.083975 20.678309
LeftArm 21.716394 -8.193048 -48.260973
LeftForeArm 9.847157 -0.000000 20.122179
LeftHand -23.352751 -0.000000 -7.688376
LeftHandThumb1 -26.253704 0.000000 33.147579
RightShoulder -19.709502 12.118072 -27.721503
RightArm -17.967018 9.388586 56.595170
RightForeArm -25.886865 0.000000 15.416747
RightHand -10.508880 -0.000000 10.117759
RightHandThumb1 -24.326973 -0.000000 -32.862282
LeftUpLeg -40.260114 20.327090 17.661851
LeftLeg 34.984126 -0.000000 -0.000000
LeftFoot -16.604403 -0.649726 -25.681292
LeftToeBase 9.368739 -0.000000 -0.000000
RightUpLeg -12.963972 -14.789763 -2.213639
RightLeg 1.274593 -0.000000 -0.000000
RightFoot -4.079322 -2.646564 22.446982
RightToeBase 1.242742 -0.000000 -0.000000
226
root 4.879202 31.338145 -4.878091 16.677741 20.395169 -11.697842
Spine -6.543476 2.424565 -2.626270
Head -21.381352 -8.933449 19.236710
LeftShoulder -10.907340 19.083004 20.763693
LeftArm 21.746359 -8.508689 -47.811417
LeftForeArm 9.755338 -0.000000 20.293117
LeftHand -23.403651 0.000000 -7.417170
LeftHandThumb1 -26.253704 0.000000 33.147579
RightShoulder -19.653364 12.163565 -27.568586
RightArm -17.820908 9.315085 56.746190
RightForeArm -25.958835 -0.000000 15.569095
RightHand -10.586622 0.000000 9.880409
RightHandThumb1 -24.326973 -0.000000 -32.862282
LeftUpLeg -41.131797 20.544911 17.806651
LeftLeg 36.008494 -0.000000 -0.000000
LeftFoot -16.985800 -0.864816 -25.567394
LeftToeBase 9.275934 -0.000000 -0.000000
RightUpLeg -13.316563 -14.801269 -2.140029
RightLeg 1.348394 -0.000000 -0.000000
RightFoot -3.533083 -1.437355 23.280729
RightToeBase 1.136584 -0.000000 -0.000000
227
root 4.959782 31.293895 -4.950350 16.818475 20.335682 -12.128692
Spine -6.482915 2.500949 -2.733664
Head -21.515213 -8.910356 19.637224
LeftShoulder -10.890418 19.045540 20.837846
LeftArm 21.756142 -8.735947 -47.352615
LeftForeArm 9.714193 -0.000000 20.417106
LeftHand -23.307625 0.000000 -7.082215
LeftHandThumb1 -26.253704 0.000000 33.147579
RightShoulder -19.559458 12.223125 -27.436398
RightArm -17.661257 9.243739 56.884562
RightForeArm -25.863126 -0.000000 15.651606
RightHand -10.546364 -0.000000 9.653129
RightHandThumb1 -24.326973 -0.000000 -32.862282
LeftUpLeg -41.934517 20.723408 17.944731
LeftLeg 36.991315 -0.000000 -0.000000
LeftFoot -17.437698 -1.012350 -25.448424
LeftToeBase 9.274848 -0.000000 -0.000000
RightUpLeg -13.643553 -14.817993 -2.126103
RightLeg 1.494225 -0.000000 -0.000000
RightFoot -2.958293 -0.103654 23.988498
RightToeBase 0.860426 -0.000000 -0.000000
228
root 5.041628 31.247776 -5.022124 16.957605 20.274390 -12.550256
Spine -6.435529 2.606315 -2.838585
Head -21.594414 -8.881770 19.987642
LeftShoulder -10.805975 19.002569 20.918691
LeftArm 21.727306 -9.051696 -46.942926
LeftForeArm 9.665202 -0.000000 20.552062
LeftHand -23.409596 0.000000 -6.747181
LeftHandThumb1 -26.253704 0.000000 33.147579
RightShoulder -19.445855 12.316057 -27.336996
RightArm -17.614533 9.219460 56.978348
RightForeArm -25.869627 0.000000 15.823060
RightHand -10.589975 -0.000000 9.484000
RightHandThumb1 -24.326973 -0.000000 -32.862282
LeftUpLeg -42.708228 20.901414 18.075371
LeftLeg 37.936322 -0.000000 -0.000000
LeftFoot -17.909442 -1.156145 -25.349610
LeftToeBase 9.254471 -0.000000 -0.000000
RightUpLeg -13.954527 -14.805483 -2.156712
RightLeg 1.637897 -0.000000 -0.000000
RightFoot -2.256190 1.400303 24.747038
RightToeBase 0.199541 -0.000000 -0.000000
